<svg xmlns="http://www.w3.org/2000/svg" viewBox="0 0 1024 1024"><defs><linearGradient id="c" x1="487.36" y1="101.57" x2="487.36" y2="827.36" gradientUnits="userSpaceOnUse"><stop offset="0" stop-color="#3cc"/><stop offset="1" stop-color="#36c"/><stop offset="1" stop-color="#36c"/></linearGradient></defs><g id="a"><rect width="1024" height="1024" rx="240.94" ry="240.94" style="fill:#fff; stroke-width:0px;"/></g><g id="b"><path d="m662.33,814.45h-304.66c-27.53-2.27-45.24-23.69-44.01-50.85,1.1-24.45,21.6-44.01,47.98-44.18l340.13-1.49c19.41,0,24.26-3.49,28.73-21.99l57.63-241.09c6.22-25.43,29.95-40.11,54.7-34.24,24.92,5.9,39.93,30.28,33.81,55.81l-59.47,246.66c-10.66,42.73-38.69,70.38-80.02,81.99-23.92,6.72-49.68,9-74.67,9.39m125.11-444.93c30.81.01,55.61-23.31,57.08-53.7,1.4-28.89-20.75-54.82-49.56-57.72-8.01-.81-16.1-1.24-24.16-1.25l-459.31,1c-50.32,1.08-93.25,42.08-97.49,95.91-2.32,29.45-3.41,59.02-4.4,88.56-1.5,44.73-2.83,89.47-3.42,134.21-.29,22.13-1.93,43.89-7.18,65.44-14.64,60.16-42.92,112.03-91.22,152-2.81,2.32-5.59,4.89-7.64,7.86-7.38,10.65-2.93,21.89,9.75,24.52,3.99.83,8.55,1.53,12.3.42,12.59-3.73,25.43-7.23,37.28-12.74,32.67-15.21,60.67-36.58,82.09-65.96,17.44-23.92,27.46-51.15,35.38-79.28,17.91-63.64,23.6-129.23,30.91-194.56,3.13-27.93,5.71-55.92,8.85-83.85,1.47-13.09,8.24-19.61,20.93-20.42l449.82-.42Zm-379.88,130.81v85.72c0,19.24,15.61,34.84,34.87,34.84s34.87-15.6,34.87-34.84v-85.16c0-19.24-15.61-34.84-34.87-34.84s-34.87,15.6-34.87,34.84m195.4-.55v85.72c0,19.24,15.61,34.84,34.87,34.84s34.87-15.6,34.87-34.84v-85.16c0-19.24-15.61-34.84-34.87-34.84s-34.87,15.6-34.87,34.84m-66.43-399.32c-32.1,0-58.12,26-58.12,58.07s26.02,58.07,58.12,58.07,58.12-26,58.12-58.07-26.02-58.07-58.12-58.07Z" style="fill:url(#c); stroke-width:0px;"/></g></svg>